<svg id="visual" viewBox="0 0 1450 450" width="1450" height="450" xmlns="http://www.w3.org/2000/svg" xmlns:xlink="http://www.w3.org/1999/xlink" version="1.1"><rect x="0" y="0" width="1450" height="450" fill="#FFFFFF"></rect><path d="M0 174L207 168L414 120L621 88L829 144L1036 137L1243 92L1450 138L1450 451L1243 451L1036 451L829 451L621 451L414 451L207 451L0 451Z" fill="#669ffa"></path><path d="M0 147L207 167L414 101L621 148L829 184L1036 111L1243 171L1450 108L1450 451L1243 451L1036 451L829 451L621 451L414 451L207 451L0 451Z" fill="#6197ee"></path><path d="M0 201L207 210L414 205L621 230L829 184L1036 217L1243 131L1450 207L1450 451L1243 451L1036 451L829 451L621 451L414 451L207 451L0 451Z" fill="#5c8fe2"></path><path d="M0 254L207 185L414 165L621 197L829 198L1036 224L1243 202L1450 247L1450 451L1243 451L1036 451L829 451L621 451L414 451L207 451L0 451Z" fill="#5788d6"></path><path d="M0 279L207 228L414 265L621 218L829 262L1036 272L1243 264L1450 269L1450 451L1243 451L1036 451L829 451L621 451L414 451L207 451L0 451Z" fill="#5280ca"></path><path d="M0 242L207 217L414 249L621 254L829 298L1036 282L1243 244L1450 250L1450 451L1243 451L1036 451L829 451L621 451L414 451L207 451L0 451Z" fill="#4d79be"></path><path d="M0 285L207 316L414 259L621 273L829 314L1036 276L1243 248L1450 297L1450 451L1243 451L1036 451L829 451L621 451L414 451L207 451L0 451Z" fill="#4971b2"></path><path d="M0 332L207 283L414 316L621 280L829 321L1036 340L1243 325L1450 289L1450 451L1243 451L1036 451L829 451L621 451L414 451L207 451L0 451Z" fill="#446aa7"></path><path d="M0 349L207 330L414 331L621 362L829 353L1036 340L1243 319L1450 326L1450 451L1243 451L1036 451L829 451L621 451L414 451L207 451L0 451Z" fill="#3f639b"></path><path d="M0 366L207 375L414 359L621 371L829 355L1036 371L1243 337L1450 375L1450 451L1243 451L1036 451L829 451L621 451L414 451L207 451L0 451Z" fill="#3b5c90"></path><path d="M0 382L207 395L414 397L621 399L829 375L1036 393L1243 406L1450 374L1450 451L1243 451L1036 451L829 451L621 451L414 451L207 451L0 451Z" fill="#365585"></path><path d="M0 405L207 426L414 403L621 429L829 400L1036 425L1243 416L1450 415L1450 451L1243 451L1036 451L829 451L621 451L414 451L207 451L0 451Z" fill="#324e7a"></path></svg>